<svg width="312" height="187" viewBox="0 0 312 187" fill="none" xmlns="http://www.w3.org/2000/svg">
<path d="M62.9497 60.8377C75.1007 60.8377 81.1762 67.8196 81.1762 81.7832V113H68.5888V82.3874C68.5888 78.3594 67.8168 75.4391 66.2727 73.6266C64.7287 71.7468 62.3455 70.807 59.1231 70.807C55.2965 70.807 52.2084 72.0489 49.8587 74.5329C47.5091 76.9496 46.3343 80.172 46.3343 84.2V113H33.8476V76.5468C33.8476 71.1762 33.579 66.3762 33.042 62.1468H44.8238L45.7301 70.5049C47.4755 67.4168 49.8252 65.0336 52.779 63.3552C55.8 61.6769 59.1902 60.8377 62.9497 60.8377ZM140.845 62.1468V113H128.559V105.145C126.948 107.965 124.8 110.113 122.114 111.59C119.429 113.067 116.341 113.806 112.85 113.806C100.431 113.806 94.2207 106.824 94.2207 92.8601V62.1468H106.707V92.9608C106.707 96.6531 107.446 99.372 108.923 101.117C110.467 102.863 112.817 103.736 115.972 103.736C119.664 103.736 122.618 102.527 124.833 100.11C127.049 97.6937 128.156 94.4713 128.156 90.4434V62.1468H140.845ZM199.019 88.228H163.975C164.244 93.6657 165.587 97.6937 168.003 100.312C170.487 102.863 174.146 104.138 178.98 104.138C184.552 104.138 189.721 102.326 194.487 98.7007L198.113 107.361C195.696 109.308 192.708 110.885 189.15 112.094C185.659 113.235 182.101 113.806 178.476 113.806C170.152 113.806 163.606 111.456 158.84 106.757C154.073 102.057 151.69 95.6126 151.69 87.4224C151.69 82.2531 152.731 77.6545 154.812 73.6266C156.893 69.5986 159.813 66.4769 163.573 64.2615C167.332 61.979 171.595 60.8377 176.361 60.8377C183.343 60.8377 188.848 63.1203 192.876 67.6853C196.971 72.1832 199.019 78.393 199.019 86.3147V88.228ZM176.664 69.9007C173.307 69.9007 170.554 70.9077 168.406 72.9217C166.325 74.8685 164.982 77.7217 164.378 81.4811H188.043C187.64 77.6545 186.465 74.7678 184.518 72.821C182.638 70.8741 180.02 69.9007 176.664 69.9007ZM256.927 62.2475L234.673 113H223.696L201.744 62.2475H214.936L229.537 98.7007L244.441 62.2475H256.927ZM285.645 113.806C280.475 113.806 275.91 112.731 271.95 110.583C268.056 108.435 265.035 105.38 262.887 101.42C260.805 97.3916 259.765 92.6923 259.765 87.3217C259.765 81.951 260.805 77.2853 262.887 73.3245C265.035 69.2965 268.056 66.2084 271.95 64.0601C275.91 61.9119 280.475 60.8377 285.645 60.8377C290.747 60.8377 295.245 61.9119 299.138 64.0601C303.032 66.2084 306.019 69.2965 308.101 73.3245C310.249 77.2853 311.323 81.951 311.323 87.3217C311.323 92.6923 310.249 97.3916 308.101 101.42C306.019 105.38 303.032 108.435 299.138 110.583C295.245 112.731 290.747 113.806 285.645 113.806ZM285.544 103.937C289.84 103.937 293.096 102.561 295.312 99.8084C297.594 96.9888 298.736 92.8266 298.736 87.3217C298.736 81.8839 297.594 77.7552 295.312 74.9357C293.029 72.0489 289.807 70.6056 285.645 70.6056C281.415 70.6056 278.159 72.0489 275.877 74.9357C273.594 77.7552 272.453 81.8839 272.453 87.3217C272.453 92.8266 273.561 96.9888 275.776 99.8084C278.059 102.561 281.315 103.937 285.544 103.937Z" fill="white"/>
<path d="M114.301 26.8869L102.068 32.6345L100.759 44.5069L94.8272 34.3514L80.0733 35.1581L92.7354 28.4403L92.5305 16.7439L100.341 26.6023L114.301 26.8869Z" fill="#00EAFF"/>
<path d="M17.1026 101.736L17.0587 101.622L16.9886 101.521C14.235 97.5707 13.4836 92.2275 15.1027 86.0638C16.7232 79.8949 20.7115 72.9568 27.3458 65.9603C40.611 51.9708 64.3445 37.8701 100.258 29.3698C118.283 25.1036 129.349 23.7096 135.935 24.3236C139.22 24.6299 141.255 25.4251 142.489 26.4844C143.689 27.5139 144.256 28.9002 144.371 30.7049C144.487 32.5438 144.127 34.7428 143.519 37.273C143.16 38.7626 142.734 40.3021 142.286 41.9174C141.967 43.0674 141.638 44.2558 141.315 45.492C139.79 51.3297 138.506 57.8913 140.014 64.2649C140.793 67.5533 143.029 71.09 146.044 74.7554C149.074 78.4402 152.976 82.3558 157.209 86.3993C159.172 88.2751 161.207 90.1784 163.263 92.1022C170.11 98.509 177.2 105.143 182.73 111.742C186.319 116.025 189.202 120.238 190.92 124.304C192.635 128.362 193.164 132.211 192.143 135.823C190.11 143.019 181.721 149.884 162.087 155.415C151.514 151.864 137.73 148.1 122.883 144.115C121.267 143.681 119.638 143.244 118 142.805C104.428 139.168 90.1676 135.346 76.7469 131.326C61.6999 126.818 47.7527 122.073 37.0467 117.077C31.6933 114.579 27.1833 112.034 23.7612 109.445C20.3248 106.845 18.0746 104.268 17.1026 101.736Z" stroke="url(#paint0_linear)" stroke-width="2.01399"/>
<path d="M74.46 120.95L72.11 126.34C71.8433 126.967 71.5033 127.423 71.09 127.71C70.6767 127.997 70.1667 128.187 69.56 128.28L69.28 127.32C69.7533 127.213 70.1067 127.077 70.34 126.91C70.58 126.75 70.7733 126.51 70.92 126.19L71.08 125.82L68.98 120.95H70.29L71.74 124.58L73.22 120.95H74.46ZM77.3118 126.08C76.7985 126.08 76.3451 125.973 75.9518 125.76C75.5651 125.547 75.2651 125.243 75.0518 124.85C74.8451 124.45 74.7418 123.983 74.7418 123.45C74.7418 122.917 74.8451 122.453 75.0518 122.06C75.2651 121.66 75.5651 121.353 75.9518 121.14C76.3451 120.927 76.7985 120.82 77.3118 120.82C77.8185 120.82 78.2651 120.927 78.6518 121.14C79.0385 121.353 79.3351 121.66 79.5418 122.06C79.7551 122.453 79.8618 122.917 79.8618 123.45C79.8618 123.983 79.7551 124.45 79.5418 124.85C79.3351 125.243 79.0385 125.547 78.6518 125.76C78.2651 125.973 77.8185 126.08 77.3118 126.08ZM77.3018 125.1C77.7285 125.1 78.0518 124.963 78.2718 124.69C78.4985 124.41 78.6118 123.997 78.6118 123.45C78.6118 122.91 78.4985 122.5 78.2718 122.22C78.0451 121.933 77.7251 121.79 77.3118 121.79C76.8918 121.79 76.5685 121.933 76.3418 122.22C76.1151 122.5 76.0018 122.91 76.0018 123.45C76.0018 123.997 76.1118 124.41 76.3318 124.69C76.5585 124.963 76.8818 125.1 77.3018 125.1ZM85.5398 120.95V126H84.3198V125.22C84.1598 125.5 83.9464 125.713 83.6798 125.86C83.4131 126.007 83.1064 126.08 82.7598 126.08C81.5264 126.08 80.9098 125.387 80.9098 124V120.95H82.1498V124.01C82.1498 124.377 82.2231 124.647 82.3698 124.82C82.5231 124.993 82.7564 125.08 83.0698 125.08C83.4364 125.08 83.7298 124.96 83.9498 124.72C84.1698 124.48 84.2798 124.16 84.2798 123.76V120.95H85.5398ZM89.6168 120.83C89.8101 120.83 89.9768 120.857 90.1168 120.91L90.1068 122.05C89.8935 121.963 89.6735 121.92 89.4468 121.92C89.0201 121.92 88.6935 122.043 88.4668 122.29C88.2468 122.537 88.1368 122.863 88.1368 123.27V126H86.8968V122.38C86.8968 121.847 86.8701 121.37 86.8168 120.95H87.9868L88.0868 121.84C88.2135 121.513 88.4135 121.263 88.6868 121.09C88.9601 120.917 89.2701 120.83 89.6168 120.83ZM96.437 120.82C96.877 120.82 97.2636 120.93 97.597 121.15C97.937 121.363 98.2003 121.667 98.387 122.06C98.5736 122.453 98.667 122.91 98.667 123.43C98.667 123.95 98.5703 124.413 98.377 124.82C98.1903 125.22 97.927 125.53 97.587 125.75C97.2536 125.97 96.8703 126.08 96.437 126.08C96.0636 126.08 95.7303 126 95.437 125.84C95.1503 125.68 94.9336 125.457 94.787 125.17V126H93.557V118.64H94.797V121.71C94.9503 121.43 95.1703 121.213 95.457 121.06C95.7436 120.9 96.0703 120.82 96.437 120.82ZM96.107 125.1C96.5203 125.1 96.8403 124.953 97.067 124.66C97.2936 124.367 97.407 123.957 97.407 123.43C97.407 122.91 97.2936 122.51 97.067 122.23C96.8403 121.943 96.517 121.8 96.097 121.8C95.677 121.8 95.3536 121.943 95.127 122.23C94.9003 122.517 94.787 122.923 94.787 123.45C94.787 123.983 94.9003 124.393 95.127 124.68C95.3536 124.96 95.6803 125.1 96.107 125.1ZM104.178 123.54H100.698C100.725 124.08 100.858 124.48 101.098 124.74C101.345 124.993 101.708 125.12 102.188 125.12C102.741 125.12 103.255 124.94 103.728 124.58L104.088 125.44C103.848 125.633 103.551 125.79 103.198 125.91C102.851 126.023 102.498 126.08 102.138 126.08C101.311 126.08 100.661 125.847 100.188 125.38C99.7148 124.913 99.4781 124.273 99.4781 123.46C99.4781 122.947 99.5815 122.49 99.7881 122.09C99.9948 121.69 100.285 121.38 100.658 121.16C101.031 120.933 101.455 120.82 101.928 120.82C102.621 120.82 103.168 121.047 103.568 121.5C103.975 121.947 104.178 122.563 104.178 123.35V123.54ZM101.958 121.72C101.625 121.72 101.351 121.82 101.138 122.02C100.931 122.213 100.798 122.497 100.738 122.87H103.088C103.048 122.49 102.931 122.203 102.738 122.01C102.551 121.817 102.291 121.72 101.958 121.72ZM107.087 126.08C106.173 126.08 105.447 125.867 104.907 125.44L105.257 124.56C105.797 124.96 106.413 125.16 107.107 125.16C107.407 125.16 107.637 125.11 107.797 125.01C107.963 124.91 108.047 124.77 108.047 124.59C108.047 124.437 107.99 124.317 107.877 124.23C107.763 124.137 107.57 124.057 107.297 123.99L106.457 123.8C105.537 123.6 105.077 123.13 105.077 122.39C105.077 122.083 105.163 121.813 105.337 121.58C105.51 121.34 105.753 121.153 106.067 121.02C106.38 120.887 106.743 120.82 107.157 120.82C107.517 120.82 107.863 120.877 108.197 120.99C108.53 121.097 108.823 121.253 109.077 121.46L108.707 122.31C108.2 121.937 107.68 121.75 107.147 121.75C106.86 121.75 106.637 121.803 106.477 121.91C106.317 122.017 106.237 122.163 106.237 122.35C106.237 122.497 106.283 122.613 106.377 122.7C106.477 122.787 106.643 122.86 106.877 122.92L107.737 123.11C108.237 123.223 108.6 123.4 108.827 123.64C109.06 123.873 109.177 124.18 109.177 124.56C109.177 125.027 108.99 125.397 108.617 125.67C108.243 125.943 107.733 126.08 107.087 126.08ZM111.788 121.89V124.15C111.788 124.743 112.064 125.04 112.618 125.04C112.771 125.04 112.938 125.013 113.118 124.96V125.95C112.898 126.03 112.631 126.07 112.318 126.07C111.744 126.07 111.304 125.91 110.998 125.59C110.691 125.27 110.538 124.81 110.538 124.21V121.89H109.568V120.95H110.538V119.72L111.788 119.3V120.95H113.128V121.89H111.788ZM119.611 120.82C120.044 120.82 120.427 120.933 120.761 121.16C121.101 121.38 121.364 121.693 121.551 122.1C121.744 122.5 121.841 122.96 121.841 123.48C121.841 124 121.747 124.457 121.561 124.85C121.374 125.243 121.111 125.547 120.771 125.76C120.437 125.973 120.051 126.08 119.611 126.08C119.244 126.08 118.917 126.003 118.631 125.85C118.344 125.69 118.124 125.47 117.971 125.19V128.16H116.731V122.38C116.731 121.847 116.704 121.37 116.651 120.95H117.821L117.921 121.82C118.054 121.507 118.271 121.263 118.571 121.09C118.871 120.91 119.217 120.82 119.611 120.82ZM119.271 125.1C119.691 125.1 120.014 124.96 120.241 124.68C120.467 124.4 120.581 124 120.581 123.48C120.581 122.953 120.467 122.543 120.241 122.25C120.014 121.95 119.694 121.8 119.281 121.8C118.854 121.8 118.527 121.943 118.301 122.23C118.074 122.517 117.961 122.927 117.961 123.46C117.961 123.987 118.074 124.393 118.301 124.68C118.527 124.96 118.851 125.1 119.271 125.1ZM122.932 118.64H124.172V126H122.932V118.64ZM130.139 120.95V126H128.919V125.22C128.759 125.5 128.546 125.713 128.279 125.86C128.013 126.007 127.706 126.08 127.359 126.08C126.126 126.08 125.509 125.387 125.509 124V120.95H126.749V124.01C126.749 124.377 126.823 124.647 126.969 124.82C127.123 124.993 127.356 125.08 127.669 125.08C128.036 125.08 128.329 124.96 128.549 124.72C128.769 124.48 128.879 124.16 128.879 123.76V120.95H130.139ZM136.376 120.95V125.84C136.376 126.627 136.16 127.223 135.726 127.63C135.293 128.037 134.656 128.24 133.816 128.24C133.036 128.24 132.35 128.077 131.756 127.75L131.956 126.8C132.57 127.12 133.18 127.28 133.786 127.28C134.686 127.28 135.136 126.833 135.136 125.94V124.94C134.983 125.213 134.76 125.437 134.466 125.61C134.173 125.777 133.843 125.86 133.476 125.86C133.036 125.86 132.643 125.757 132.296 125.55C131.956 125.337 131.69 125.04 131.496 124.66C131.31 124.273 131.216 123.833 131.216 123.34C131.216 122.847 131.31 122.41 131.496 122.03C131.69 121.643 131.956 121.347 132.296 121.14C132.643 120.927 133.036 120.82 133.476 120.82C133.85 120.82 134.18 120.9 134.466 121.06C134.76 121.213 134.983 121.43 135.136 121.71V120.95H136.376ZM133.806 124.88C134.22 124.88 134.543 124.743 134.776 124.47C135.016 124.197 135.136 123.82 135.136 123.34C135.136 122.86 135.02 122.483 134.786 122.21C134.553 121.937 134.226 121.8 133.806 121.8C133.393 121.8 133.066 121.937 132.826 122.21C132.593 122.483 132.476 122.86 132.476 123.34C132.476 123.82 132.593 124.197 132.826 124.47C133.066 124.743 133.393 124.88 133.806 124.88ZM142.861 119.63C142.321 119.63 142.051 119.927 142.051 120.52V120.95H143.181V121.89H142.051V126H140.801V121.89H139.841V120.95H140.801V120.46C140.801 119.86 140.951 119.4 141.251 119.08C141.558 118.753 141.994 118.59 142.561 118.59C142.874 118.59 143.138 118.63 143.351 118.71V119.7C143.164 119.653 143.001 119.63 142.861 119.63ZM146.384 126.08C145.871 126.08 145.417 125.973 145.024 125.76C144.637 125.547 144.337 125.243 144.124 124.85C143.917 124.45 143.814 123.983 143.814 123.45C143.814 122.917 143.917 122.453 144.124 122.06C144.337 121.66 144.637 121.353 145.024 121.14C145.417 120.927 145.871 120.82 146.384 120.82C146.891 120.82 147.337 120.927 147.724 121.14C148.111 121.353 148.407 121.66 148.614 122.06C148.827 122.453 148.934 122.917 148.934 123.45C148.934 123.983 148.827 124.45 148.614 124.85C148.407 125.243 148.111 125.547 147.724 125.76C147.337 125.973 146.891 126.08 146.384 126.08ZM146.374 125.1C146.801 125.1 147.124 124.963 147.344 124.69C147.571 124.41 147.684 123.997 147.684 123.45C147.684 122.91 147.571 122.5 147.344 122.22C147.117 121.933 146.797 121.79 146.384 121.79C145.964 121.79 145.641 121.933 145.414 122.22C145.187 122.5 145.074 122.91 145.074 123.45C145.074 123.997 145.184 124.41 145.404 124.69C145.631 124.963 145.954 125.1 146.374 125.1ZM152.732 120.83C152.925 120.83 153.092 120.857 153.232 120.91L153.222 122.05C153.009 121.963 152.789 121.92 152.562 121.92C152.135 121.92 151.809 122.043 151.582 122.29C151.362 122.537 151.252 122.863 151.252 123.27V126H150.012V122.38C150.012 121.847 149.985 121.37 149.932 120.95H151.102L151.202 121.84C151.329 121.513 151.529 121.263 151.802 121.09C152.075 120.917 152.385 120.83 152.732 120.83ZM162.632 120.82C163.206 120.82 163.632 120.993 163.912 121.34C164.192 121.68 164.332 122.2 164.332 122.9V126H163.082V122.94C163.082 122.54 163.016 122.253 162.882 122.08C162.756 121.9 162.542 121.81 162.242 121.81C161.896 121.81 161.622 121.933 161.422 122.18C161.229 122.42 161.132 122.753 161.132 123.18V126H159.882V122.94C159.882 122.547 159.812 122.26 159.672 122.08C159.539 121.9 159.326 121.81 159.032 121.81C158.686 121.81 158.412 121.933 158.212 122.18C158.012 122.42 157.912 122.753 157.912 123.18V126H156.672V122.38C156.672 121.847 156.646 121.37 156.592 120.95H157.762L157.852 121.75C157.999 121.45 158.209 121.22 158.482 121.06C158.762 120.9 159.082 120.82 159.442 120.82C160.216 120.82 160.719 121.14 160.952 121.78C161.112 121.48 161.339 121.247 161.632 121.08C161.932 120.907 162.266 120.82 162.632 120.82ZM167.956 126.08C167.443 126.08 166.99 125.973 166.596 125.76C166.21 125.547 165.91 125.243 165.696 124.85C165.49 124.45 165.386 123.983 165.386 123.45C165.386 122.917 165.49 122.453 165.696 122.06C165.91 121.66 166.21 121.353 166.596 121.14C166.99 120.927 167.443 120.82 167.956 120.82C168.463 120.82 168.91 120.927 169.296 121.14C169.683 121.353 169.98 121.66 170.186 122.06C170.4 122.453 170.506 122.917 170.506 123.45C170.506 123.983 170.4 124.45 170.186 124.85C169.98 125.243 169.683 125.547 169.296 125.76C168.91 125.973 168.463 126.08 167.956 126.08ZM167.946 125.1C168.373 125.1 168.696 124.963 168.916 124.69C169.143 124.41 169.256 123.997 169.256 123.45C169.256 122.91 169.143 122.5 168.916 122.22C168.69 121.933 168.37 121.79 167.956 121.79C167.536 121.79 167.213 121.933 166.986 122.22C166.76 122.5 166.646 122.91 166.646 123.45C166.646 123.997 166.756 124.41 166.976 124.69C167.203 124.963 167.526 125.1 167.946 125.1ZM176.276 120.96L174.066 126H172.976L170.796 120.96H172.106L173.556 124.58L175.036 120.96H176.276ZM176.926 120.95H178.166V126H176.926V120.95ZM178.236 118.66V119.89H176.846V118.66H178.236ZM183.954 123.54H180.474C180.5 124.08 180.634 124.48 180.874 124.74C181.12 124.993 181.484 125.12 181.964 125.12C182.517 125.12 183.03 124.94 183.504 124.58L183.864 125.44C183.624 125.633 183.327 125.79 182.974 125.91C182.627 126.023 182.274 126.08 181.914 126.08C181.087 126.08 180.437 125.847 179.964 125.38C179.49 124.913 179.254 124.273 179.254 123.46C179.254 122.947 179.357 122.49 179.564 122.09C179.77 121.69 180.06 121.38 180.434 121.16C180.807 120.933 181.23 120.82 181.704 120.82C182.397 120.82 182.944 121.047 183.344 121.5C183.75 121.947 183.954 122.563 183.954 123.35V123.54ZM181.734 121.72C181.4 121.72 181.127 121.82 180.914 122.02C180.707 122.213 180.574 122.497 180.514 122.87H182.864C182.824 122.49 182.707 122.203 182.514 122.01C182.327 121.817 182.067 121.72 181.734 121.72ZM192.356 120.95V126H191.136V125.22C190.976 125.5 190.763 125.713 190.496 125.86C190.23 126.007 189.923 126.08 189.576 126.08C188.343 126.08 187.726 125.387 187.726 124V120.95H188.966V124.01C188.966 124.377 189.04 124.647 189.186 124.82C189.34 124.993 189.573 125.08 189.886 125.08C190.253 125.08 190.546 124.96 190.766 124.72C190.986 124.48 191.096 124.16 191.096 123.76V120.95H192.356ZM196.593 120.82C197.027 120.82 197.41 120.933 197.743 121.16C198.083 121.38 198.347 121.693 198.533 122.1C198.727 122.5 198.823 122.96 198.823 123.48C198.823 124 198.73 124.457 198.543 124.85C198.357 125.243 198.093 125.547 197.753 125.76C197.42 125.973 197.033 126.08 196.593 126.08C196.227 126.08 195.9 126.003 195.613 125.85C195.327 125.69 195.107 125.47 194.953 125.19V128.16H193.713V122.38C193.713 121.847 193.687 121.37 193.633 120.95H194.803L194.903 121.82C195.037 121.507 195.253 121.263 195.553 121.09C195.853 120.91 196.2 120.82 196.593 120.82ZM196.253 125.1C196.673 125.1 196.997 124.96 197.223 124.68C197.45 124.4 197.563 124 197.563 123.48C197.563 122.953 197.45 122.543 197.223 122.25C196.997 121.95 196.677 121.8 196.263 121.8C195.837 121.8 195.51 121.943 195.283 122.23C195.057 122.517 194.943 122.927 194.943 123.46C194.943 123.987 195.057 124.393 195.283 124.68C195.51 124.96 195.833 125.1 196.253 125.1ZM204.744 118.64V126H203.514V125.19C203.361 125.47 203.141 125.69 202.854 125.85C202.568 126.003 202.241 126.08 201.874 126.08C201.441 126.08 201.054 125.97 200.714 125.75C200.374 125.53 200.108 125.22 199.914 124.82C199.728 124.413 199.634 123.95 199.634 123.43C199.634 122.91 199.728 122.453 199.914 122.06C200.101 121.667 200.364 121.363 200.704 121.15C201.044 120.93 201.434 120.82 201.874 120.82C202.234 120.82 202.554 120.897 202.834 121.05C203.121 121.197 203.341 121.407 203.494 121.68V118.64H204.744ZM202.204 125.1C202.618 125.1 202.938 124.957 203.164 124.67C203.398 124.383 203.514 123.977 203.514 123.45C203.514 122.923 203.401 122.517 203.174 122.23C202.948 121.943 202.628 121.8 202.214 121.8C201.794 121.8 201.468 121.943 201.234 122.23C201.008 122.51 200.894 122.91 200.894 123.43C200.894 123.957 201.008 124.367 201.234 124.66C201.468 124.953 201.791 125.1 202.204 125.1ZM210.936 120.95V126H209.706V125.19C209.552 125.47 209.332 125.69 209.046 125.85C208.759 126.003 208.432 126.08 208.066 126.08C207.626 126.08 207.236 125.973 206.896 125.76C206.556 125.547 206.292 125.243 206.106 124.85C205.919 124.457 205.826 124 205.826 123.48C205.826 122.96 205.919 122.5 206.106 122.1C206.299 121.693 206.566 121.38 206.906 121.16C207.246 120.933 207.632 120.82 208.066 120.82C208.432 120.82 208.759 120.9 209.046 121.06C209.332 121.213 209.552 121.43 209.706 121.71V120.95H210.936ZM208.406 125.1C208.819 125.1 209.139 124.957 209.366 124.67C209.592 124.383 209.706 123.98 209.706 123.46C209.706 122.927 209.592 122.517 209.366 122.23C209.139 121.943 208.816 121.8 208.396 121.8C207.982 121.8 207.659 121.95 207.426 122.25C207.199 122.543 207.086 122.953 207.086 123.48C207.086 124 207.199 124.4 207.426 124.68C207.659 124.96 207.986 125.1 208.406 125.1ZM213.887 121.89V124.15C213.887 124.743 214.164 125.04 214.717 125.04C214.871 125.04 215.037 125.013 215.217 124.96V125.95C214.997 126.03 214.731 126.07 214.417 126.07C213.844 126.07 213.404 125.91 213.097 125.59C212.791 125.27 212.637 124.81 212.637 124.21V121.89H211.667V120.95H212.637V119.72L213.887 119.3V120.95H215.227V121.89H213.887ZM220.506 123.54H217.026C217.053 124.08 217.186 124.48 217.426 124.74C217.673 124.993 218.036 125.12 218.516 125.12C219.07 125.12 219.583 124.94 220.056 124.58L220.416 125.44C220.176 125.633 219.88 125.79 219.526 125.91C219.18 126.023 218.826 126.08 218.466 126.08C217.64 126.08 216.99 125.847 216.516 125.38C216.043 124.913 215.806 124.273 215.806 123.46C215.806 122.947 215.91 122.49 216.116 122.09C216.323 121.69 216.613 121.38 216.986 121.16C217.36 120.933 217.783 120.82 218.256 120.82C218.95 120.82 219.496 121.047 219.896 121.5C220.303 121.947 220.506 122.563 220.506 123.35V123.54ZM218.286 121.72C217.953 121.72 217.68 121.82 217.466 122.02C217.26 122.213 217.126 122.497 217.066 122.87H219.416C219.376 122.49 219.26 122.203 219.066 122.01C218.88 121.817 218.62 121.72 218.286 121.72ZM223.415 126.08C222.501 126.08 221.775 125.867 221.235 125.44L221.585 124.56C222.125 124.96 222.741 125.16 223.435 125.16C223.735 125.16 223.965 125.11 224.125 125.01C224.291 124.91 224.375 124.77 224.375 124.59C224.375 124.437 224.318 124.317 224.205 124.23C224.091 124.137 223.898 124.057 223.625 123.99L222.785 123.8C221.865 123.6 221.405 123.13 221.405 122.39C221.405 122.083 221.491 121.813 221.665 121.58C221.838 121.34 222.081 121.153 222.395 121.02C222.708 120.887 223.071 120.82 223.485 120.82C223.845 120.82 224.191 120.877 224.525 120.99C224.858 121.097 225.151 121.253 225.405 121.46L225.035 122.31C224.528 121.937 224.008 121.75 223.475 121.75C223.188 121.75 222.965 121.803 222.805 121.91C222.645 122.017 222.565 122.163 222.565 122.35C222.565 122.497 222.611 122.613 222.705 122.7C222.805 122.787 222.971 122.86 223.205 122.92L224.065 123.11C224.565 123.223 224.928 123.4 225.155 123.64C225.388 123.873 225.505 124.18 225.505 124.56C225.505 125.027 225.318 125.397 224.945 125.67C224.571 125.943 224.061 126.08 223.415 126.08Z" fill="white" fill-opacity="0.7"/>
<defs>
<linearGradient id="paint0_linear" x1="-41.2288" y1="143.02" x2="57.1046" y2="165.154" gradientUnits="userSpaceOnUse">
<stop offset="0.951571" stop-color="#00EAFF"/>
<stop offset="1" stop-opacity="0"/>
</linearGradient>
</defs>
</svg>
